<svg id="Administrador" xmlns="http://www.w3.org/2000/svg" width="280.995" height="281.006" viewBox="0 0 280.995 281.006">
  <path id="Path_97" data-name="Path 97" d="M543,252.5a140.021,140.021,0,0,1-11.315,55.326l-.466,1.072a140.73,140.73,0,0,1-153.1,81.992q-1.266-.224-2.527-.466a139.242,139.242,0,0,1-25.414-7.495q-2-.8-3.974-1.667c-.9-.391-1.8-.794-2.685-1.21A140.511,140.511,0,1,1,543,252.5Z" transform="translate(-262 -112)" fill="#0b736a"/>
  <path id="Path_98" data-name="Path 98" d="M457.523,517.307q-1.266-.224-2.527-.466c-.549-15.924-2.432-48.609-8.854-82.84-3.512-18.734-8.388-37.939-15.151-55.106a171.521,171.521,0,0,0-7.927-17.392c-6.834-12.907-15.122-23.772-25.173-31.134l1.48-2.02q12.539,9.191,22.538,25.805,3,4.976,5.761,10.616,2.962,6.036,5.649,12.815,1.715,4.315,3.313,8.929a324.093,324.093,0,0,1,11.83,45.716q1.079,5.674,2.053,11.626A589.5,589.5,0,0,1,457.523,517.307Z" transform="translate(-341.404 -238.419)" opacity="0.2"/>
  <path id="Path_99" data-name="Path 99" d="M427.752,663.315c-.9-.391-1.8-.794-2.685-1.21a204.077,204.077,0,0,0-5.383-32.252,105.816,105.816,0,0,0-4.909-14.632c-3.33-7.794-7.64-14.42-13.214-18.506l1.48-2.016c5.836,4.273,10.338,11.028,13.817,18.93,3.92,8.9,6.534,19.266,8.276,29.168C426.426,650.151,427.24,657.255,427.752,663.315Z" transform="translate(-343.549 -394.054)" opacity="0.2"/>
  <ellipse id="Ellipse_49" data-name="Ellipse 49" cx="12.507" cy="12.507" rx="12.507" ry="12.507" transform="translate(30.001 66.879)" opacity="0.2"/>
  <ellipse id="Ellipse_50" data-name="Ellipse 50" cx="12.507" cy="12.507" rx="12.507" ry="12.507" transform="translate(34.028 174.542)" opacity="0.2"/>
  <path id="Path_100" data-name="Path 100" d="M482.745,317.43c-2.652,14.963,3.2,28.512,3.2,28.512s10.155-10.711,12.807-25.674-3.2-28.512-3.2-28.512S485.4,302.467,482.745,317.43Z" transform="translate(-390.584 -217.036)" opacity="0.2"/>
  <path id="Path_101" data-name="Path 101" d="M351.287,413.545c14.272,5.219,28.614,1.87,28.614,1.87s-8.8-11.81-23.07-17.029-28.614-1.87-28.614-1.87S337.015,408.326,351.287,413.545Z" transform="translate(-300.692 -277.632)" opacity="0.2"/>
  <path id="Path_102" data-name="Path 102" d="M355.184,650.425a38.939,38.939,0,0,0,20.07,1.272,35.487,35.487,0,0,0-36.226-13.247A38.938,38.938,0,0,0,355.184,650.425Z" transform="translate(-307.009 -419.172)" opacity="0.2"/>
  <ellipse id="Ellipse_51" data-name="Ellipse 51" cx="54.773" cy="54.773" rx="54.773" ry="54.773" transform="translate(85.436 62.064)" fill="#f2d8c4"/>
  <path id="Path_103" data-name="Path 103" d="M547.833,469.9s6.847,32.522,6.847,35.945S587.2,524.677,587.2,524.677l29.1-5.135,10.27-30.81s-17.117-25.675-17.117-35.945Z" transform="translate(-429.02 -311.131)" fill="#f2d8c4"/>
  <path id="Path_104" data-name="Path 104" d="M604.862,544.64l-.466,1.072A140.73,140.73,0,0,1,451.3,627.7q-1.266-.224-2.527-.466a139.245,139.245,0,0,1-25.414-7.495q-2-.8-3.974-1.667c-.9-.391-1.8-.794-2.685-1.21a140.323,140.323,0,0,1-22.966-13.418l-6.493-18.834,3.65-2.785L398.4,576.1l8.01-6.115,2.083-1.592L439.918,544.4l2.319-1.771,16.336-12.47,0,0s17.666,28.785,43.342,20.227,25.115-33.1,25.115-33.1Z" transform="translate(-335.181 -348.816)" fill="#414b5e"/>
  <path id="Path_105" data-name="Path 105" d="M466.927,244.341s17.39-37.679,50.722-28.984,52.171,21.738,53.62,34.781-.725,32.607-.725,32.607-3.623-26.81-26.81-21.013-59.417,1.449-59.417,1.449l-5.8,52.171s-6.521-9.42-13.767-3.623S443.739,255.935,466.927,244.341Z" transform="translate(-374.217 -171.633)" fill="#252b38"/>
  <path id="Path_106" data-name="Path 106" d="M413.588,714.4q-2-.8-3.974-1.667c-.9-.391-1.8-.794-2.685-1.21a140.846,140.846,0,0,1-36.409-24.4,49.255,49.255,0,0,1,6.95-7.852h25.676L407,692.214Z" transform="translate(-325.411 -443.471)" fill="#414b5e"/>
  <path id="Path_107" data-name="Path 107" d="M854.467,576.32l22.027,3.891A140.476,140.476,0,0,1,852.9,617.027Z" transform="translate(-607.278 -383.314)" fill="#414b5e"/>
  <path id="shield-alt-solid" d="M78.914,11.711,52.1.538a6.724,6.724,0,0,0-5.153,0L20.134,11.711A6.7,6.7,0,0,0,16,17.9c0,27.721,15.99,46.882,30.933,53.111a6.724,6.724,0,0,0,5.153,0C64.055,66.022,83.034,48.8,83.034,17.9A6.7,6.7,0,0,0,78.914,11.711ZM49.531,62.349,49.517,9.141,74.082,19.378C73.621,40.521,62.617,55.841,49.531,62.349Z" transform="translate(38.785 174.024)" fill="#e56855"/>
</svg>
