<svg xmlns="http://www.w3.org/2000/svg" viewBox="0 0 364.01 230.46"><defs><style>.cls-1{fill:#59727c;}.cls-2{fill:#256;}.cls-3{fill:#78909c;}.cls-4{fill:#b2bbc4;}.cls-5{fill:#dce8ef;}.cls-6{fill:#95acb5;}.cls-7{fill:#d4e4ef;}.cls-8{fill:#87a0aa;}.cls-9{fill:#f1f2f2;opacity:0.34;}</style></defs><title>Asset 1</title><g id="Layer_2" data-name="Layer 2"><g id="Layer_2-2" data-name="Layer 2"><g id="_16" data-name="16"><path class="cls-1" d="M182.42,100.93h0a15.25,15.25,0,0,1-15.19-13.87l-6.55-72.8A3.94,3.94,0,0,1,164.61,10h35.62a3.93,3.93,0,0,1,3.92,4.29l-6.55,72.8A15.24,15.24,0,0,1,182.42,100.93Z"/><rect class="cls-2" x="1.45" y="126.74" width="31.69" height="20.76" rx="1.51"/><path class="cls-3" d="M164.25,23.83A23.83,23.83,0,0,0,140.42,0H81.11c-3,0-5.36,3.67-5.36,8.2V45.06c0,4.53,2.4,8.2,5.36,8.2h83.14Z"/><circle class="cls-3" cx="77.39" cy="144.22" r="65.56" transform="translate(-80.82 186.15) rotate(-76.63)"/><circle class="cls-4" cx="77.39" cy="144.22" r="55.72" transform="translate(-80.81 186.19) rotate(-76.64)"/><path class="cls-2" d="M98.15,112.27h-59a1.63,1.63,0,0,0-1.64,1.64V144.5a1.64,1.64,0,0,0,1.64,1.64h59a1.65,1.65,0,0,0,1.64-1.64V113.91A1.64,1.64,0,0,0,98.15,112.27Z"/><path class="cls-5" d="M89.75,117H43.17a1.24,1.24,0,0,0-1.29,1.18v22a1.24,1.24,0,0,0,1.29,1.18H89.75a1.24,1.24,0,0,0,1.3-1.18v-22A1.24,1.24,0,0,0,89.75,117Z"/><path class="cls-3" d="M173.27,134.39c0,43-30.49,79.62-72.9,92.93-2.23.72-5-.13-7.94-2.13A26.11,26.11,0,0,1,81.55,208a405.52,405.52,0,0,1-5.76-87.84c.39-9.48,1.11-18.59,2.09-27.27q.8-7.38,1.84-14.36c1-6.69,2.09-13.08,3.27-19.21,0-8.16,8.89-14,17.38-11.34,34.74,10.91,61.49,33,70,64.34a77.23,77.23,0,0,1,2.72,16.46C173.2,130.65,173.27,132.49,173.27,134.39Z"/><path class="cls-2" d="M155.4,160.26H131.59c-.37,0-.66.41-.66.91v16.92c0,.49.29.9.66.9H155.4c.36,0,.66-.41.66-.9V161.17C156.06,160.67,155.76,160.26,155.4,160.26Z"/><path class="cls-5" d="M152,162.89H134.45c-.27,0-.49.29-.49.65v12.17c0,.36.22.65.49.65H152c.27,0,.49-.29.49-.65V163.54C152.53,163.18,152.31,162.89,152,162.89Z"/><path class="cls-1" d="M173.07,128.82C156.88,114,129.18,97.55,77.88,92.93q.8-7.38,1.84-14.36c25,0,61.82,5.77,90.63,33.79A77.23,77.23,0,0,1,173.07,128.82Z"/><path class="cls-6" d="M79.6,75c-1.74,9.86,6.46,24.14,6,36.44-.71,18.28-8.86,31.42-6.7,45a14.48,14.48,0,0,0,5.42,9.38c1.48,1.1,2.83,1.56,3.94,1.18a53.89,53.89,0,0,0,36.26-50.92c0-23.58-15.16-40-36.26-47.32A6.55,6.55,0,0,0,79.6,75Z"/><path class="cls-4" d="M180.09,125.82a32.67,32.67,0,1,1-32.67-32.67A32.67,32.67,0,0,1,180.09,125.82Z"/><path class="cls-3" d="M172.47,125.82a25,25,0,1,1-25.05-25A25,25,0,0,1,172.47,125.82Z"/><path class="cls-2" d="M167.57,125.82a20.15,20.15,0,1,1-20.15-20.15A20.15,20.15,0,0,1,167.57,125.82Z"/><path class="cls-7" d="M116.31,149.58a29.68,29.68,0,1,1-29.68-29.67A29.68,29.68,0,0,1,116.31,149.58Z"/><path class="cls-3" d="M109.39,149.58a22.76,22.76,0,1,1-22.76-22.75A22.76,22.76,0,0,1,109.39,149.58Z"/><path class="cls-4" d="M104.93,149.58a18.3,18.3,0,1,1-18.3-18.3A18.3,18.3,0,0,1,104.93,149.58Z"/><path class="cls-7" d="M120.72,75.39A29.68,29.68,0,1,1,91.05,45.71,29.67,29.67,0,0,1,120.72,75.39Z"/><path class="cls-3" d="M113.8,75.39A22.75,22.75,0,1,1,91.05,52.64,22.75,22.75,0,0,1,113.8,75.39Z"/><path class="cls-4" d="M109.35,75.39a18.31,18.31,0,1,1-18.3-18.3A18.3,18.3,0,0,1,109.35,75.39Z"/><path class="cls-7" d="M143.49,200.78a29.68,29.68,0,1,1-29.68-29.67A29.68,29.68,0,0,1,143.49,200.78Z"/><path class="cls-8" d="M113.81,184.59a16.09,16.09,0,0,0-12.44,5.94l12.43,9.89,8.74-13.24A16,16,0,0,0,113.81,184.59Z"/><path class="cls-3" d="M130,200.78a16.15,16.15,0,0,0-7.47-13.6l-8.74,13.24,12.8,10.19A16,16,0,0,0,130,200.78Z"/><path class="cls-3" d="M101.37,190.53a16,16,0,0,0,3.35,23.65l9.08-13.76Z"/><path class="cls-8" d="M113.8,200.42l-9.08,13.76a16.07,16.07,0,0,0,21.88-3.57Z"/><circle class="cls-3" cx="132.93" cy="209.16" r="3.28"/><path class="cls-3" d="M133.26,196.47a3.28,3.28,0,1,1,3.27-3.28A3.28,3.28,0,0,1,133.26,196.47Z"/><path class="cls-3" d="M124.51,184a3.28,3.28,0,1,1,0-4.64A3.28,3.28,0,0,1,124.51,184Z"/><path class="cls-3" d="M109.49,181.34a3.28,3.28,0,1,1-3.27-3.28A3.27,3.27,0,0,1,109.49,181.34Z"/><path class="cls-3" d="M97,190.08a3.28,3.28,0,1,1-4.64,0A3.28,3.28,0,0,1,97,190.08Z"/><path class="cls-3" d="M94.36,205.1a3.28,3.28,0,1,1-3.28,3.28A3.28,3.28,0,0,1,94.36,205.1Z"/><path class="cls-3" d="M103.11,217.59a3.28,3.28,0,1,1,0,4.63A3.28,3.28,0,0,1,103.11,217.59Z"/><path class="cls-3" d="M118.13,220.23a3.28,3.28,0,1,1,3.27,3.28A3.27,3.27,0,0,1,118.13,220.23Z"/><path class="cls-7" d="M59.36,90.43A29.68,29.68,0,1,1,29.68,60.75,29.68,29.68,0,0,1,59.36,90.43Z"/><path class="cls-8" d="M29.68,74.23a16.12,16.12,0,0,0-12.44,5.94l12.43,9.9,8.74-13.25A16.1,16.1,0,0,0,29.68,74.23Z"/><path class="cls-3" d="M45.87,90.43a16.17,16.17,0,0,0-7.46-13.61L29.67,90.07l12.8,10.19A16,16,0,0,0,45.87,90.43Z"/><path class="cls-3" d="M17.24,80.17a16.07,16.07,0,0,0,3.34,23.66l9.09-13.76Z"/><path class="cls-8" d="M29.67,90.07l-9.09,13.76a16.11,16.11,0,0,0,21.89-3.57Z"/><path class="cls-3" d="M46.48,101.13a3.28,3.28,0,1,1,4.64,0A3.28,3.28,0,0,1,46.48,101.13Z"/><path class="cls-3" d="M49.13,86.11a3.28,3.28,0,1,1,3.27-3.27A3.28,3.28,0,0,1,49.13,86.11Z"/><circle class="cls-3" cx="38.06" cy="71.31" r="3.28"/><path class="cls-3" d="M25.36,71a3.28,3.28,0,1,1-3.28-3.27A3.28,3.28,0,0,1,25.36,71Z"/><path class="cls-3" d="M12.87,79.73a3.28,3.28,0,1,1-4.63,0A3.28,3.28,0,0,1,12.87,79.73Z"/><path class="cls-3" d="M10.23,94.75A3.28,3.28,0,1,1,7,98,3.28,3.28,0,0,1,10.23,94.75Z"/><circle class="cls-3" cx="21.3" cy="109.55" r="3.28"/><path class="cls-3" d="M34,109.88a3.28,3.28,0,1,1,3.27,3.27A3.27,3.27,0,0,1,34,109.88Z"/><path class="cls-9" d="M96,90.88a15.73,15.73,0,0,1-3.9.49,16,16,0,0,1,0-32,15.73,15.73,0,0,1,3.9.49,16,16,0,0,0,0,31Z"/><path class="cls-9" d="M91.12,165a15.16,15.16,0,0,1-3.9.49,16,16,0,0,1,0-32,15.16,15.16,0,0,1,3.9.49,16,16,0,0,0,0,31Z"/><path class="cls-9" d="M150.13,141.27a15.29,15.29,0,0,1-3.91.5,16,16,0,0,1,0-32,15.29,15.29,0,0,1,3.91.49,16,16,0,0,0,0,31Z"/><polygon class="cls-3" points="64.82 24.66 64.82 37.97 213.43 38.46 214.34 25.14 64.82 24.66"/><rect class="cls-4" x="33.14" y="17.62" width="32.78" height="28.68" rx="1.47"/><path class="cls-7" d="M119.59,41.79H104a9.42,9.42,0,0,1-9.42-9.42h0A9.42,9.42,0,0,1,104,23h15.57A9.43,9.43,0,0,1,129,32.37h0A9.43,9.43,0,0,1,119.59,41.79Z"/><rect class="cls-2" x="330.87" y="126.74" width="31.69" height="20.76" rx="1.51" transform="translate(693.44 274.24) rotate(180)"/><path class="cls-3" d="M282.9,0H223.32a23.83,23.83,0,0,0-23.83,23.83V53.26H282.9c3,0,5.36-3.67,5.36-8.2V8.2C288.26,3.67,285.86,0,282.9,0Z"/><circle class="cls-3" cx="286.62" cy="144.22" r="65.56" transform="translate(-25.59 70.21) rotate(-13.37)"/><circle class="cls-4" cx="286.62" cy="144.22" r="55.72" transform="translate(-25.57 70.14) rotate(-13.36)"/><path class="cls-2" d="M265.86,112.27h59a1.63,1.63,0,0,1,1.63,1.64V144.5a1.64,1.64,0,0,1-1.63,1.64h-59a1.65,1.65,0,0,1-1.64-1.64V113.91A1.64,1.64,0,0,1,265.86,112.27Z"/><path class="cls-5" d="M274.26,117h46.58a1.25,1.25,0,0,1,1.3,1.18v22a1.25,1.25,0,0,1-1.3,1.18H274.26A1.24,1.24,0,0,1,273,140.2v-22A1.24,1.24,0,0,1,274.26,117Z"/><path class="cls-3" d="M190.75,134.39c0,43,30.48,79.62,72.9,92.93,2.23.72,5-.13,7.93-2.13A26.07,26.07,0,0,0,282.46,208a406.1,406.1,0,0,0,5.77-87.84c-.39-9.48-1.11-18.59-2.1-27.27-.52-4.92-1.15-9.71-1.83-14.36-1-6.69-2.1-13.08-3.28-19.21,0-8.16-8.88-14-17.37-11.34-34.75,10.91-61.49,33-70,64.34A76.6,76.6,0,0,0,191,128.82C190.82,130.65,190.75,132.49,190.75,134.39Z"/><path class="cls-2" d="M208.62,160.26h23.8c.37,0,.67.41.67.91v16.92c0,.49-.3.9-.67.9h-23.8c-.37,0-.66-.41-.66-.9V161.17C208,160.67,208.25,160.26,208.62,160.26Z"/><path class="cls-5" d="M212,162.89h17.6c.27,0,.49.29.49.65v12.17c0,.36-.22.65-.49.65H212c-.27,0-.48-.29-.48-.65V163.54C211.49,163.18,211.7,162.89,212,162.89Z"/><path class="cls-1" d="M191,128.82c16.19-14.78,43.88-31.27,95.18-35.89-.52-4.92-1.15-9.71-1.83-14.36-25,0-61.82,5.77-90.64,33.79A76.6,76.6,0,0,0,191,128.82Z"/><path class="cls-6" d="M284.41,75c1.75,9.86-6.46,24.14-6,36.44.71,18.28,8.87,31.42,6.71,45a14.45,14.45,0,0,1-5.43,9.38c-1.48,1.1-2.82,1.56-3.93,1.18a53.88,53.88,0,0,1-36.27-50.92c0-23.58,15.16-40,36.27-47.32A6.54,6.54,0,0,1,284.41,75Z"/><path class="cls-4" d="M183.92,125.82a32.67,32.67,0,1,0,32.67-32.67A32.67,32.67,0,0,0,183.92,125.82Z"/><path class="cls-3" d="M191.54,125.82a25,25,0,1,0,25.05-25A25.06,25.06,0,0,0,191.54,125.82Z"/><path class="cls-2" d="M196.45,125.82a20.15,20.15,0,1,0,20.14-20.15A20.15,20.15,0,0,0,196.45,125.82Z"/><path class="cls-7" d="M247.7,149.58a29.68,29.68,0,1,0,29.68-29.67A29.68,29.68,0,0,0,247.7,149.58Z"/><path class="cls-3" d="M254.63,149.58a22.75,22.75,0,1,0,22.75-22.75A22.75,22.75,0,0,0,254.63,149.58Z"/><path class="cls-4" d="M259.08,149.58a18.3,18.3,0,1,0,18.3-18.3A18.3,18.3,0,0,0,259.08,149.58Z"/><path class="cls-7" d="M243.29,75.39A29.68,29.68,0,1,0,273,45.71,29.67,29.67,0,0,0,243.29,75.39Z"/><path class="cls-3" d="M250.21,75.39A22.76,22.76,0,1,0,273,52.64,22.75,22.75,0,0,0,250.21,75.39Z"/><path class="cls-4" d="M254.67,75.39A18.3,18.3,0,1,0,273,57.09,18.3,18.3,0,0,0,254.67,75.39Z"/><path class="cls-7" d="M220.53,200.78a29.68,29.68,0,1,0,29.67-29.67A29.68,29.68,0,0,0,220.53,200.78Z"/><path class="cls-8" d="M250.2,184.59a16.07,16.07,0,0,1,12.44,5.94l-12.43,9.89-8.74-13.24A16,16,0,0,1,250.2,184.59Z"/><path class="cls-3" d="M234,200.78a16.14,16.14,0,0,1,7.46-13.6l8.74,13.24-12.8,10.19A16.05,16.05,0,0,1,234,200.78Z"/><path class="cls-3" d="M262.64,190.53a16,16,0,0,1,3.76,10.25,16.17,16.17,0,0,1-7.1,13.4l-9.09-13.76Z"/><path class="cls-8" d="M250.21,200.42l9.09,13.76a16.09,16.09,0,0,1-21.89-3.57Z"/><path class="cls-3" d="M233.4,211.48a3.27,3.27,0,1,0-4.63,0A3.27,3.27,0,0,0,233.4,211.48Z"/><path class="cls-3" d="M230.76,196.47a3.28,3.28,0,1,0-3.28-3.28A3.28,3.28,0,0,0,230.76,196.47Z"/><circle class="cls-3" cx="241.82" cy="181.66" r="3.28"/><circle class="cls-3" cx="257.8" cy="181.34" r="3.28"/><path class="cls-3" d="M267,190.08a3.28,3.28,0,1,0,4.63,0A3.28,3.28,0,0,0,267,190.08Z"/><path class="cls-3" d="M269.65,205.1a3.28,3.28,0,1,0,3.28,3.28A3.28,3.28,0,0,0,269.65,205.1Z"/><circle class="cls-3" cx="258.59" cy="219.91" r="3.28"/><path class="cls-3" d="M245.89,220.23a3.28,3.28,0,1,0-3.28,3.28A3.28,3.28,0,0,0,245.89,220.23Z"/><path class="cls-7" d="M304.66,90.43a29.68,29.68,0,1,0,29.67-29.68A29.68,29.68,0,0,0,304.66,90.43Z"/><path class="cls-8" d="M334.33,74.23a16.1,16.1,0,0,1,12.44,5.94l-12.43,9.9L325.6,76.82A16.12,16.12,0,0,1,334.33,74.23Z"/><path class="cls-3" d="M318.14,90.43a16.17,16.17,0,0,1,7.46-13.61l8.74,13.25-12.8,10.19A16.1,16.1,0,0,1,318.14,90.43Z"/><path class="cls-3" d="M346.77,80.17a16,16,0,0,1,3.76,10.26,16.2,16.2,0,0,1-7.1,13.4l-9.09-13.76Z"/><path class="cls-8" d="M334.34,90.07l9.09,13.76a16.11,16.11,0,0,1-21.89-3.57Z"/><path class="cls-3" d="M317.53,101.13a3.28,3.28,0,1,0-4.63,0A3.28,3.28,0,0,0,317.53,101.13Z"/><path class="cls-3" d="M314.89,86.11a3.28,3.28,0,1,0-3.28-3.27A3.28,3.28,0,0,0,314.89,86.11Z"/><circle class="cls-3" cx="325.96" cy="71.31" r="3.28"/><path class="cls-3" d="M338.65,71a3.28,3.28,0,1,0,3.28-3.27A3.28,3.28,0,0,0,338.65,71Z"/><path class="cls-3" d="M351.14,79.73a3.28,3.28,0,1,0,4.63,0A3.28,3.28,0,0,0,351.14,79.73Z"/><path class="cls-3" d="M353.78,94.75A3.28,3.28,0,1,0,357.06,98,3.28,3.28,0,0,0,353.78,94.75Z"/><path class="cls-3" d="M345,107.23a3.28,3.28,0,1,0,0,4.64A3.27,3.27,0,0,0,345,107.23Z"/><path class="cls-3" d="M330,109.88a3.28,3.28,0,1,0-3.28,3.27A3.28,3.28,0,0,0,330,109.88Z"/><path class="cls-9" d="M268,90.88a15.75,15.75,0,0,0,3.91.49,16,16,0,0,0,0-32,15.75,15.75,0,0,0-3.91.49,16,16,0,0,1,0,31Z"/><path class="cls-9" d="M272.89,165a15.27,15.27,0,0,0,3.9.49,16,16,0,0,0,0-32,15.27,15.27,0,0,0-3.9.49,16,16,0,0,1,0,31Z"/><path class="cls-9" d="M213.89,141.27a15.27,15.27,0,0,0,3.9.5,16,16,0,0,0,0-32,15.27,15.27,0,0,0-3.9.49,16,16,0,0,1,0,31Z"/><polygon class="cls-3" points="299.19 24.66 299.19 37.97 150.58 38.46 149.68 25.14 299.19 24.66"/><rect class="cls-4" x="298.09" y="17.62" width="32.78" height="28.68" rx="1.47" transform="translate(628.97 63.92) rotate(180)"/><path class="cls-7" d="M244.42,41.79H260a9.41,9.41,0,0,0,9.42-9.42h0A9.41,9.41,0,0,0,260,23H244.42A9.42,9.42,0,0,0,235,32.37h0A9.42,9.42,0,0,0,244.42,41.79Z"/><path class="cls-4" d="M201.68,69.79A19.67,19.67,0,1,1,182,50.12,19.67,19.67,0,0,1,201.68,69.79Z"/><path class="cls-7" d="M195.94,69.79A13.93,13.93,0,1,1,182,55.86,13.93,13.93,0,0,1,195.94,69.79Z"/></g></g></g></svg>