<svg id="Médico" xmlns="http://www.w3.org/2000/svg" xmlns:xlink="http://www.w3.org/1999/xlink" width="280.995" height="281.006" viewBox="0 0 280.995 281.006">
  <defs>
    <clipPath id="clip-path">
      <path id="Path_129" data-name="Path 129" d="M543,252.5a140.021,140.021,0,0,1-11.315,55.326l-.466,1.072a140.73,140.73,0,0,1-153.1,81.992q-1.266-.224-2.527-.466a139.242,139.242,0,0,1-25.414-7.495q-2-.8-3.974-1.667c-.9-.391-1.8-.794-2.685-1.21A140.511,140.511,0,1,1,543,252.5Z" transform="translate(48.215 571.405)" fill="#0b736a"/>
    </clipPath>
  </defs>
  <path id="Path_97" data-name="Path 97" d="M543,252.5a140.021,140.021,0,0,1-11.315,55.326l-.466,1.072a140.73,140.73,0,0,1-153.1,81.992q-1.266-.224-2.527-.466a139.242,139.242,0,0,1-25.414-7.495q-2-.8-3.974-1.667c-.9-.391-1.8-.794-2.685-1.21A140.511,140.511,0,1,1,543,252.5Z" transform="translate(-262 -112)" fill="#0b736a"/>
  <path id="Path_98" data-name="Path 98" d="M457.523,517.307q-1.266-.224-2.527-.466c-.549-15.924-2.432-48.609-8.854-82.84-3.512-18.734-8.388-37.939-15.151-55.106a171.521,171.521,0,0,0-7.927-17.392c-6.834-12.907-15.122-23.772-25.173-31.134l1.48-2.02q12.539,9.191,22.538,25.805,3,4.976,5.761,10.616,2.962,6.036,5.649,12.815,1.715,4.315,3.313,8.929a324.093,324.093,0,0,1,11.83,45.716q1.079,5.674,2.053,11.626A589.5,589.5,0,0,1,457.523,517.307Z" transform="translate(-341.404 -238.419)" opacity="0.2"/>
  <path id="Path_99" data-name="Path 99" d="M427.752,663.315c-.9-.391-1.8-.794-2.685-1.21a204.077,204.077,0,0,0-5.383-32.252,105.816,105.816,0,0,0-4.909-14.632c-3.33-7.794-7.64-14.42-13.214-18.506l1.48-2.016c5.836,4.273,10.338,11.028,13.817,18.93,3.92,8.9,6.534,19.266,8.276,29.168C426.426,650.151,427.24,657.255,427.752,663.315Z" transform="translate(-343.549 -394.054)" opacity="0.2"/>
  <ellipse id="Ellipse_49" data-name="Ellipse 49" cx="12.507" cy="12.507" rx="12.507" ry="12.507" transform="translate(30.001 66.879)" opacity="0.2"/>
  <ellipse id="Ellipse_50" data-name="Ellipse 50" cx="12.507" cy="12.507" rx="12.507" ry="12.507" transform="translate(34.028 174.542)" opacity="0.2"/>
  <path id="Path_100" data-name="Path 100" d="M482.745,317.43c-2.652,14.963,3.2,28.512,3.2,28.512s10.155-10.711,12.807-25.674-3.2-28.512-3.2-28.512S485.4,302.467,482.745,317.43Z" transform="translate(-390.584 -217.036)" opacity="0.2"/>
  <path id="Path_101" data-name="Path 101" d="M351.287,413.545c14.272,5.219,28.614,1.87,28.614,1.87s-8.8-11.81-23.07-17.029-28.614-1.87-28.614-1.87S337.015,408.326,351.287,413.545Z" transform="translate(-300.692 -277.632)" opacity="0.2"/>
  <path id="Path_102" data-name="Path 102" d="M355.184,650.425a38.939,38.939,0,0,0,20.07,1.272,35.487,35.487,0,0,0-36.226-13.247A38.938,38.938,0,0,0,355.184,650.425Z" transform="translate(-307.009 -419.172)" opacity="0.2"/>
  <g id="Mask_Group_1" data-name="Mask Group 1" transform="translate(-310.215 -683.405)" clip-path="url(#clip-path)">
    <g id="undraw_medical_research_qg4d_1_" data-name="undraw_medical_research_qg4d (1)" transform="translate(1042.783 609.72)">
      <path id="Path_109" data-name="Path 109" d="M381.058,702.426l-2.215,30.282a9.64,9.64,0,0,0,10.2,10.326l15.554-.942a4.917,4.917,0,0,0,4.472-6.1l-8.634-34.535Z" transform="translate(-986.188 4.505)" fill="#e6e6e6"/>
      <path id="Path_110" data-name="Path 110" d="M492.045,720.265c18.306,4.282,31.383,10.369,39.973,18.607a17.625,17.625,0,0,0,11.28,4.836c5.388.283,9.793-.32,13.1-1.8h0a5.193,5.193,0,0,0,3.076-4.279,5.284,5.284,0,0,0-2.214-4.884L513.85,701.853l-18.441,7.378-4.3,4.3a4.26,4.26,0,0,0,.938,6.732Z" transform="translate(-967.073 4.574)" fill="#e6e6e6"/>
      <path id="Path_111" data-name="Path 111" d="M461.887,315.412l-124.1-1.149c.312-18.075,4.518-35.824,13.71-51.708,6.037-10.431,5.907-21.784,4.452-31.348-2.245-14.76,2.976-29.861,14.578-39.256a46.787,46.787,0,0,1,31.463-10.41l2.41.1a46.9,46.9,0,0,1,38.529,23.173,39.065,39.065,0,0,1,4.643,23.8c-.787,7.738,1.1,15.554,5.5,23.445C460.667,269.382,462.312,291.555,461.887,315.412Z" transform="translate(-993.25 -84.999)" fill="#252b38"/>
      <circle id="Ellipse_52" data-name="Ellipse 52" cx="32.827" cy="32.827" r="32.827" transform="translate(-625.179 121.386)" fill="#f2d8c4"/>
      <path id="Path_113" data-name="Path 113" d="M423.954,287.83l-54.006-3.177c5.293-12.148,7.407-23.845,5.295-34.945h40.24C415.392,258.231,419.633,272.973,423.954,287.83Z" transform="translate(-987.715 -73.258)" fill="#f2d8c4"/>
      <path id="Path_114" data-name="Path 114" d="M289.628,320.631l-118.6,8.472,12.177-210.2,20.649-5.824,23.3,5.295,23.3-11.649,14.825,5.3Z" transform="translate(-819.503 90.904)" fill="#e56855"/>
      <path id="Path_115" data-name="Path 115" d="M372.811,633.11,291.8,614.579C315.89,534.7,359.286,351.96,345.278,286.837l42.358-19.061Z" transform="translate(-1001.166 -70.148)" fill="#e6e6e6"/>
      <path id="Path_116" data-name="Path 116" d="M332,400.085l-30.709-19.061,26.19-76.7A36.185,36.185,0,0,1,343.3,285.533l8.822-5.108-5.295,77.3Z" transform="translate(-999.533 -67.97)" fill="#e6e6e6"/>
      <path id="Path_117" data-name="Path 117" d="M522.6,615.949c-25.568,14.793-89.48,23.039-117.542,12.707-2.065-72.172-6.115-276.319,6.883-362.687l46.593,19.061L454.3,342.214C432.028,391.131,496.71,561.507,522.6,615.949Z" transform="translate(-982.059 -70.459)" fill="#e6e6e6"/>
      <path id="Path_118" data-name="Path 118" d="M338.924,229.193l-28.592-9.531-38.121-43.417,6.354-55.065L342.1,210.131Z" transform="translate(-802.085 93.392)" fill="#e6e6e6"/>
      <path id="Path_119" data-name="Path 119" d="M425.432,411.747a7.953,7.953,0,0,0,9.5,5.992l24.27-5.5L455.7,396.751l-24.271,5.5A7.944,7.944,0,0,0,425.432,411.747Z" transform="translate(-978.198 -47.946)" fill="#f2d8c4"/>
      <path id="Path_120" data-name="Path 120" d="M425.043,227.552c-18.233-7.5-36.241-8.04-54.006-1.059l-7.413-26.473H431.4Z" transform="translate(-988.803 -81.811)" fill="#252b38"/>
      <path id="Path_121" data-name="Path 121" d="M444.029,400.477,457.8,425.891c23.155-6.458,43.221-26.817,62.477-50.829l-5.295-16.943-32.827,8.471Z" transform="translate(-974.962 -54.596)" fill="#e6e6e6"/>
      <path id="Path_122" data-name="Path 122" d="M439.8,365.088h-4.236c0-59.909-12.335-101.658-24.356-101.658l-1.059-4.236c10.78,0,17.653,17.376,21.52,31.953C436.914,310.909,439.8,337.168,439.8,365.088Z" transform="translate(-980.794 -71.625)" fill="#414b5e"/>
      <path id="Path_123" data-name="Path 123" d="M352.954,349.952h-4.236c0-54.867,12.42-88.951,30.709-88.951l-1.059,4.236C365.718,265.237,352.954,291.432,352.954,349.952Z" transform="translate(-991.369 -71.314)" fill="#414b5e"/>
      <ellipse id="Ellipse_53" data-name="Ellipse 53" cx="10.589" cy="10.589" rx="10.589" ry="10.589" transform="translate(-553.7 283.933)" fill="#414b5e"/>
      <path id="Path_124" data-name="Path 124" d="M338.5,362.614h-4.236c0-15.181,8.551-27.532,19.061-27.532v4.236C345.15,339.318,338.5,349.769,338.5,362.614Z" transform="translate(-993.857 -58.562)" fill="#414b5e"/>
      <path id="Path_125" data-name="Path 125" d="M369.586,362.614h-4.236c0-12.846-6.65-23.3-14.825-23.3v-4.236C361.036,335.082,369.586,347.433,369.586,362.614Z" transform="translate(-991.058 -58.562)" fill="#3f3d56"/>
      <ellipse id="Ellipse_54" data-name="Ellipse 54" cx="4.236" cy="4.236" rx="4.236" ry="4.236" transform="translate(-627.826 300.876)" fill="#414b5e"/>
      <ellipse id="Ellipse_55" data-name="Ellipse 55" cx="4.236" cy="4.236" rx="4.236" ry="4.236" transform="translate(-661.712 300.876)" fill="#414b5e"/>
      <path id="Path_126" data-name="Path 126" d="M118.177,165.193l26.428,4.719,60.4,85.89-32.091-7.551Z" transform="translate(-828.6 100.968)" fill="#e56855"/>
      <path id="Path_127" data-name="Path 127" d="M287.225,325.347a2.248,2.248,0,0,0-1.844,3.482L341.844,414.5a2.24,2.24,0,0,0,1.36.95l26.271,6.181a2.244,2.244,0,0,0,2.35-3.475l-61.993-88.147a2.231,2.231,0,0,0-1.441-.918l-20.741-3.7A2.432,2.432,0,0,0,287.225,325.347Z" transform="translate(-1002.335 -60.238)" fill="#252b38"/>
      <path id="Path_128" data-name="Path 128" d="M316.949,377.971l1.569,15.807,24.763-2.458a7.942,7.942,0,0,0-1.569-15.807Z" transform="translate(-996.838 -51.609)" fill="#f2d8c4"/>
    </g>
  </g>
</svg>
