<svg id="Secretária" xmlns="http://www.w3.org/2000/svg" xmlns:xlink="http://www.w3.org/1999/xlink" width="280.995" height="281.006" viewBox="0 0 280.995 281.006">
  <defs>
    <clipPath id="clip-path">
      <path id="Path_130" data-name="Path 130" d="M543,252.5a140.021,140.021,0,0,1-11.315,55.326l-.466,1.072a140.73,140.73,0,0,1-153.1,81.992q-1.266-.224-2.527-.466a139.242,139.242,0,0,1-25.414-7.495q-2-.8-3.974-1.667c-.9-.391-1.8-.794-2.685-1.21A140.511,140.511,0,1,1,543,252.5Z" transform="translate(417.215 571.405)" fill="#0b736a"/>
    </clipPath>
  </defs>
  <path id="Path_97" data-name="Path 97" d="M543,252.5a140.021,140.021,0,0,1-11.315,55.326l-.466,1.072a140.73,140.73,0,0,1-153.1,81.992q-1.266-.224-2.527-.466a139.242,139.242,0,0,1-25.414-7.495q-2-.8-3.974-1.667c-.9-.391-1.8-.794-2.685-1.21A140.511,140.511,0,1,1,543,252.5Z" transform="translate(-262 -112)" fill="#0b736a"/>
  <path id="Path_98" data-name="Path 98" d="M457.523,517.307q-1.266-.224-2.527-.466c-.549-15.924-2.432-48.609-8.854-82.84-3.512-18.734-8.388-37.939-15.151-55.106a171.521,171.521,0,0,0-7.927-17.392c-6.834-12.907-15.122-23.772-25.173-31.134l1.48-2.02q12.539,9.191,22.538,25.805,3,4.976,5.761,10.616,2.962,6.036,5.649,12.815,1.715,4.315,3.313,8.929a324.093,324.093,0,0,1,11.83,45.716q1.079,5.674,2.053,11.626A589.5,589.5,0,0,1,457.523,517.307Z" transform="translate(-341.404 -238.419)" opacity="0.2"/>
  <path id="Path_99" data-name="Path 99" d="M427.752,663.315c-.9-.391-1.8-.794-2.685-1.21a204.077,204.077,0,0,0-5.383-32.252,105.816,105.816,0,0,0-4.909-14.632c-3.33-7.794-7.64-14.42-13.214-18.506l1.48-2.016c5.836,4.273,10.338,11.028,13.817,18.93,3.92,8.9,6.534,19.266,8.276,29.168C426.426,650.151,427.24,657.255,427.752,663.315Z" transform="translate(-343.549 -394.054)" opacity="0.2"/>
  <ellipse id="Ellipse_49" data-name="Ellipse 49" cx="12.507" cy="12.507" rx="12.507" ry="12.507" transform="translate(30.001 66.879)" opacity="0.2"/>
  <ellipse id="Ellipse_50" data-name="Ellipse 50" cx="12.507" cy="12.507" rx="12.507" ry="12.507" transform="translate(34.028 174.542)" opacity="0.2"/>
  <path id="Path_100" data-name="Path 100" d="M482.745,317.43c-2.652,14.963,3.2,28.512,3.2,28.512s10.155-10.711,12.807-25.674-3.2-28.512-3.2-28.512S485.4,302.467,482.745,317.43Z" transform="translate(-390.584 -217.036)" opacity="0.2"/>
  <path id="Path_101" data-name="Path 101" d="M351.287,413.545c14.272,5.219,28.614,1.87,28.614,1.87s-8.8-11.81-23.07-17.029-28.614-1.87-28.614-1.87S337.015,408.326,351.287,413.545Z" transform="translate(-300.692 -277.632)" opacity="0.2"/>
  <path id="Path_102" data-name="Path 102" d="M355.184,650.425a38.939,38.939,0,0,0,20.07,1.272,35.487,35.487,0,0,0-36.226-13.247A38.938,38.938,0,0,0,355.184,650.425Z" transform="translate(-307.009 -419.172)" opacity="0.2"/>
  <g id="Mask_Group_2" data-name="Mask Group 2" transform="translate(-679.215 -683.405)" clip-path="url(#clip-path)">
    <g id="undraw_businesswoman_pc12" transform="translate(449 664.749)">
      <path id="Path_34" data-name="Path 34" d="M625.709,254.65s-29.928.314-24.831,16.891l11.42,6.627,11.381-2.313,5.343-9.44Z" transform="translate(-163.624 -114.747)" fill="#414b5e"/>
      <path id="Path_35" data-name="Path 35" d="M625.709,254.65s-29.928.314-24.831,16.891l11.42,6.627,11.381-2.313,5.343-9.44Z" transform="translate(-163.624 -114.747)" opacity="0.1"/>
      <path id="Path_36" data-name="Path 36" d="M559.7,224.959c8.205,29.84,28.213,26.929,28.213,26.929l12.832,15.538,1.892,2.412,4.1,5.215,18.155-10.313-3.617-4.254L600.06,235.566S551.5,195.129,559.7,224.959Z" transform="translate(-162.806 -113.945)" fill="#f2d8c4"/>
      <rect id="Rectangle_3" data-name="Rectangle 3" width="0.549" height="4.558" rx="0.274" transform="matrix(-0.825, 0.566, -0.566, -0.825, 395.675, 121.077)" fill="#3a3768"/>
      <rect id="Rectangle_4" data-name="Rectangle 4" width="0.314" height="1.5" rx="0.157" transform="matrix(-0.825, 0.566, -0.566, -0.825, 407.078, 105.237)" fill="#3a3768"/>
      <rect id="Rectangle_5" data-name="Rectangle 5" width="0.352" height="2.604" rx="0.176" transform="matrix(-0.821, 0.571, -0.571, -0.821, 410.963, 111.915)" fill="#3a3768"/>
      <rect id="Rectangle_6" data-name="Rectangle 6" width="0.333" height="2.637" rx="0.167" transform="matrix(-0.825, 0.566, -0.566, -0.825, 411.274, 111.325)" fill="#3a3768"/>
      <rect id="Rectangle_7" data-name="Rectangle 7" width="18.498" height="37.604" rx="2.24" transform="matrix(-0.825, 0.566, -0.566, -0.825, 424.546, 131)" fill="#252b38"/>
      <path id="Path_37" data-name="Path 37" d="M554.611,222.939a.667.667,0,0,1,.922.176l.078.108a.667.667,0,0,0,.921.176l6.48-4.441a.666.666,0,0,0,.166-.921l-.078-.108a.667.667,0,0,1,.177-.922l1.255-.872a1.274,1.274,0,0,1,1.764.333L585.02,243.78a1.264,1.264,0,0,1-.333,1.755L573.4,253.25a1.265,1.265,0,0,1-1.755-.333l-18.734-27.311a1.265,1.265,0,0,1,.333-1.755Z" transform="translate(-162.686 -113.983)" fill="#e56855"/>
      <rect id="Rectangle_8" data-name="Rectangle 8" width="2.588" height="0.529" rx="0.265" transform="matrix(-0.825, 0.566, -0.566, -0.825, 398.059, 105.573)" fill="#e6e8ec"/>
      <ellipse id="Ellipse_28" data-name="Ellipse 28" cx="0.294" cy="0.294" rx="0.294" ry="0.294" transform="translate(394.915 106.907)" fill="#e6e8ec"/>
      <path id="Path_50" data-name="Path 50" d="M514.68,267.27l11.764,28.615V320.51c0,.637,29.252,8.823,29.252,8.823l7.578-18.939s2.313-22.312-6.1-40.839a27.556,27.556,0,0,1-1.147-19.184q.206-.745.441-1.47a48.31,48.31,0,0,1,9.332-16.175s-20.067-6.656-33.85-8.009c-8.676-.843-14.881.412-12.028,6.744A28.068,28.068,0,0,1,522.2,244.2a6.029,6.029,0,0,1-.078,1.186C521.258,257.192,514.68,267.27,514.68,267.27Z" transform="translate(-161.937 -114.152)" fill="#f2d8c4"/>
      <path id="Path_51" data-name="Path 51" d="M520.046,231.48a28.064,28.064,0,0,1,2.274,12.744,6.034,6.034,0,0,1-.078,1.186.266.266,0,0,0,.079.069,31.075,31.075,0,0,0,17.851,7.754c.912.088,1.843.128,2.774.128a30.633,30.633,0,0,0,13.2-2.941q.206-.745.441-1.47a48.307,48.307,0,0,1,9.332-16.175s-20.067-6.656-33.85-8.009C523.4,223.893,517.193,225.147,520.046,231.48Z" transform="translate(-162.029 -114.153)" opacity="0.1"/>
      <path id="Path_52" data-name="Path 52" d="M510.67,217.622a34.31,34.31,0,0,0,11.479,25.8A31.125,31.125,0,0,0,540,251.168c.912.088,1.843.127,2.774.127a30.76,30.76,0,0,0,13.646-3.176,33.831,33.831,0,0,0,18.469-30.5,34.6,34.6,0,0,0-6.264-19.988,31.6,31.6,0,0,0-25.85-13.724C525.051,183.939,510.67,199.016,510.67,217.622Z" transform="translate(-161.858 -113.353)" fill="#f2d8c4"/>
      <path id="Path_53" data-name="Path 53" d="M554.714,327.976s-19.606-17.89-25.047-34.095a179.6,179.6,0,0,0-13.048-29.252l1.451-3.029s8.019,21.341,13.91,23.86,19.606,17.047,20.841,27.154l.843-30.732,1.323-20.282s10.038,21.341,10.881,31.232-.216,27.782-3.372,31.566A10.284,10.284,0,0,1,554.714,327.976Z" transform="translate(-161.975 -114.884)" fill="#e56855"/>
      <path id="Path_54" data-name="Path 54" d="M513.62,261l.137-.127Z" transform="translate(-161.916 -114.869)" fill="none" stroke="aqua" stroke-miterlimit="10" stroke-width="1"/>
      <path id="Path_58" data-name="Path 58" d="M480.37,442.735c.8.529,17.1,11.019,44.476,22.713C552.951,477.437,556,428.716,556,428.716a50.356,50.356,0,0,1,5.372,13.577c1.559,6.225,7.676,14.185,10.783,17.9l4.205-35.163-32.2-6.94s-39.4,4-51.956,8.676a17.392,17.392,0,0,0-1.716.725C486.585,429.393,483.144,435.647,480.37,442.735Z" transform="translate(-161.261 -117.967)" opacity="0.1"/>
      <path id="Path_59" data-name="Path 59" d="M463.785,334.459c1.892,4.205,0,8.734,0,8.734s27.889,24.1,29.262,19.988,1.961,6.95,1.961,6.95,2.745,2.843,2.117,4.313.52,9.891.52,9.891,1.47,5.048.421,6.107-2.627,9.8-2.627,9.8l-3.764,13.979-.657.549c-5.882,4.833-6.637,13.254-8.323,15.361s-2.725,8.205-2.725,8.205,16.41,10.734,44.506,22.733,31.154-36.732,31.154-36.732a50.356,50.356,0,0,1,5.4,13.528c2.108,8.421,12.528,20,12.528,20,10.107-1.686,18.724-29.36,16.518-30.938s-8.46-21.782-8.46-21.782c-9.891-13.783-.98-42.417-.98-42.417s9.048-23.047,8.94-26.831,2.108-3.921,2.108-3.921l6.421-43.986s-8.823-3.686-9.578-6.744-13.371-6.411-13.371-6.411.853-1.265-4.519-3.059a19.788,19.788,0,0,1-5.2-3.176,121.88,121.88,0,0,1-11.616-10.783s-.539,12.528,2.078,19.773,4.529,28.644,4.735,30.222-7.578,18.1-7.578,18.1l-4.127-5.656c-6.509-8.9-18.5-25.252-19.331-26.017-1.167-1.049-11.254-29.193-12.656-32.7-.52-1.284-1.245-1.7-1.961-1.706a2.941,2.941,0,0,0-1.578.51h0a5.392,5.392,0,0,0-.7.51l-.245.676-.059.137a14.975,14.975,0,0,1-.745,1.686h0c-6.764,13.273-32,22.772-32,22.772-8.1,2.843-9.47,8.6-9.47,8.6s1.47,5.088-1.784,7.617-1.892,9.47-1.892,9.47-4.421,10-3.284,11.47a27.025,27.025,0,0,1,2.333,4S461.893,330.215,463.785,334.459Z" transform="translate(-160.92 -114.809)" fill="#414b5e"/>
      <path id="Path_60" data-name="Path 60" d="M547.21,340.24s43.045,6.735,41.045-11.764c-1.823-16.871-17.645-52.358-20.449-58.533A122.543,122.543,0,0,1,556.18,259.16s-.529,12.528,2.078,19.772,4.529,28.634,4.735,30.213-7.578,18.106-7.578,18.106Z" transform="translate(-162.578 -114.835)" opacity="0.1"/>
      <path id="Path_61" data-name="Path 61" d="M545.92,338.96s43.045,6.725,41.045-11.764c-1.823-16.871-17.645-52.358-20.449-58.533A121.9,121.9,0,0,1,554.9,257.88s-.539,12.528,2.068,19.773,4.529,28.644,4.745,30.222-7.578,18.1-7.578,18.1Z" transform="translate(-162.552 -114.81)" opacity="0.1"/>
      <path id="Path_62" data-name="Path 62" d="M546.57,338.96s43.035,6.725,41.035-11.763c-1.813-16.871-17.645-52.358-20.449-58.533A121.88,121.88,0,0,1,555.54,257.88s-.539,12.528,2.078,19.772,4.529,28.644,4.735,30.223-7.578,18.1-7.578,18.1Z" transform="translate(-162.565 -114.81)" fill="#414b5e"/>
      <path id="Path_63" data-name="Path 63" d="M511.39,264.688h0c0,.128.069,1.961.157,4.784.167,5.45.431,14.7.569,23.419.157,10.1.157,19.39-.333,20.978-1.157,3.686,4.519,12.842,4.519,12.842l28.311,13.567,7.617-12.107-3.539-6.6c-6.509-8.9-18.5-25.252-19.331-26.017-.372-.333-1.667-3.451-3.284-7.646-3.451-8.911-8.421-22.674-9.372-25.056a3.539,3.539,0,0,0-1.96-1.715,1.735,1.735,0,0,0-1.578.52h0a5.538,5.538,0,0,0-.98,1.314v.049a10.064,10.064,0,0,0-.725,1.637Z" transform="translate(-161.872 -114.874)" opacity="0.1"/>
      <path id="Path_64" data-name="Path 64" d="M513.33,263.4h0c0,.118.069,1.961.147,4.774.167,5.45.431,14.7.569,23.419.167,10.1.167,19.39-.333,20.978-1.157,3.686,4.529,12.842,4.529,12.842l28.3,13.577,7.637-12.107-3.539-6.6c-6.509-8.9-18.488-25.252-19.331-26.017-.372-.333-1.657-3.451-3.284-7.646-3.451-8.9-8.421-22.674-9.372-25.056a3.529,3.529,0,0,0-1.961-1.706,1.686,1.686,0,0,0-1.578.51h0a5.436,5.436,0,0,0-.98,1.323h0a9.984,9.984,0,0,0-.725,1.647Z" transform="translate(-161.91 -114.849)" opacity="0.1"/>
      <path id="Path_65" data-name="Path 65" d="M512.68,263.4h0c0,.118.069,1.961.157,4.774.167,5.45.422,14.7.568,23.419.157,10.1.157,19.39-.343,20.978-1.147,3.686,4.529,12.842,4.529,12.842L545.9,338.989l7.607-12.116s-1.343-2.529-3.529-6.6c-6.509-8.9-18.5-25.252-19.331-26.017-.372-.333-1.667-3.451-3.284-7.646-3.451-8.9-8.421-22.674-9.372-25.056a3.511,3.511,0,0,0-1.961-1.706,1.706,1.706,0,0,0-1.578.51h0a5.17,5.17,0,0,0-.98,1.323h0a9.99,9.99,0,0,0-.725,1.647Z" transform="translate(-161.897 -114.848)" fill="#414b5e"/>
      <ellipse id="Ellipse_29" data-name="Ellipse 29" cx="2.372" cy="4.107" rx="2.372" ry="4.107" transform="translate(385.524 226.248)" opacity="0.1"/>
      <ellipse id="Ellipse_30" data-name="Ellipse 30" cx="2.372" cy="4.107" rx="2.372" ry="4.107" transform="translate(385.524 225.611)" fill="#e56855"/>
      <ellipse id="Ellipse_31" data-name="Ellipse 31" cx="2.372" cy="4.107" rx="2.372" ry="4.107" transform="translate(391.612 270.283)" opacity="0.1"/>
      <ellipse id="Ellipse_32" data-name="Ellipse 32" cx="2.372" cy="4.107" rx="2.372" ry="4.107" transform="translate(389.249 246.971)" opacity="0.1"/>
      <ellipse id="Ellipse_33" data-name="Ellipse 33" cx="2.372" cy="4.107" rx="2.372" ry="4.107" transform="translate(393.984 289.859)" opacity="0.1"/>
      <ellipse id="Ellipse_34" data-name="Ellipse 34" cx="2.372" cy="4.107" rx="2.372" ry="4.107" transform="translate(391.612 269.655)" fill="#e56855"/>
      <ellipse id="Ellipse_35" data-name="Ellipse 35" cx="2.372" cy="4.107" rx="2.372" ry="4.107" transform="translate(389.249 246.344)" fill="#e56855"/>
      <ellipse id="Ellipse_36" data-name="Ellipse 36" cx="2.372" cy="4.107" rx="2.372" ry="4.107" transform="translate(393.984 289.232)" fill="#e56855"/>
      <path id="Path_66" data-name="Path 66" d="M507.045,293.269c.617-.471,3.48-1.118,6.244-1.666s5.588-.98,5.588-.98a16.792,16.792,0,0,1,8.372-3.921c-3.451-8.9-8.421-22.674-9.372-25.056a3.509,3.509,0,0,0-1.96-1.706,1.706,1.706,0,0,0-1.578.51h0a5.167,5.167,0,0,0-.98,1.323h0l-.579,6.441-.157,1.725s-4.578,2.206-3.627,5.882S505.781,294.22,507.045,293.269Z" transform="translate(-161.782 -114.85)" fill="#6c63ff"/>
      <path id="Path_67" data-name="Path 67" d="M555.732,262.25s15.567,22.38,15.4,26.8-2.519,0-2.519,0-6.578-19.537-14.253-4.735Z" transform="translate(-162.719 -114.896)" opacity="0.1"/>
      <path id="Path_68" data-name="Path 68" d="M555.732,261.6s15.567,22.39,15.4,26.811-2.519,0-2.519,0-6.578-19.537-14.253-4.745Z" transform="translate(-162.719 -114.884)" fill="#e56855"/>
      <path id="Path_69" data-name="Path 69" d="M598.4,290.954l2.313-2.274s6.048,2.274,6.97,5.215a2.8,2.8,0,0,0,3.47,2.176,13.791,13.791,0,0,0,3.47,1.255c.98,0,2.372,4.421,2.372,4.421s9.94,2.529,10.783,2.686,39.771,36.34,39.771,36.34-22.409,3.441-25.88,2.019-6.95-1.667-8.685-2.019-40.878-8.715-40.878-8.715Z" transform="translate(-163.463 -115.417)" fill="#414b5e"/>
      <path id="Path_70" data-name="Path 70" d="M603.52,270.812l4.1,5.215,18.155-10.313-3.617-4.254C618.92,266.371,613.156,271.655,603.52,270.812Z" transform="translate(-163.687 -114.881)" opacity="0.1"/>
      <path id="Path_71" data-name="Path 71" d="M661.874,338.151l5.833,1.961s14.214-1.294,13.263-7.45-7.107-17.43-7.107-17.43l-8.823-15.087s-3.48-4.137-3.157-5.46-4.107-3.539-4.107-3.539-2.529-3.313-2.686-4.9-14.371-13.606-14.371-13.606-4.9-4.107-3.794-18H625.721s-5.146,20.684-24.831,16.89l27.046,32.2Z" transform="translate(-163.636 -114.746)" fill="#414b5e"/>
      <path id="Path_72" data-name="Path 72" d="M436.9,510.882a34.947,34.947,0,0,0,17.724,4.9c1.235-6.166,1.814-10.783,1.814-10.783H439.223S438.2,507.362,436.9,510.882Z" transform="translate(-160.404 -119.68)" opacity="0.1"/>
      <path id="Path_73" data-name="Path 73" d="M468.091,340.59l-5,4.205s.98,2.314-.725,3.578,0,10.891,0,10.891a5.726,5.726,0,0,1-1.372,3.519c-1.421,1.686,0,18.106,0,18.106a5.471,5.471,0,0,1-1.735,2.049c-.98.471-3.794,15.949-3,16.734s-12,38.045-12,38.045.314,6.47-1.421,7.578-2.049,8.519-2.049,8.519.784,6.627-2.372,7.891-3.784,23.684-3.784,23.684-4.264,11.518-6.793,13.41c0,0,12,16.42,35.2,11.685,0,0,.98-20.684,3.784-28.889l8.372-41.829s5.049-17.841,6.94-27.625,10.215-47.358,10.215-47.358v-13.41Z" transform="translate(-160.226 -116.44)" fill="#414b5e"/>
      <ellipse id="Ellipse_37" data-name="Ellipse 37" cx="1.108" cy="2.206" rx="1.108" ry="2.206" transform="translate(282.142 336.433)" opacity="0.1"/>
      <ellipse id="Ellipse_38" data-name="Ellipse 38" cx="1.108" cy="2.206" rx="1.108" ry="2.206" transform="translate(277.721 355.215)" opacity="0.1"/>
      <ellipse id="Ellipse_39" data-name="Ellipse 39" cx="1.108" cy="2.206" rx="1.108" ry="2.206" transform="translate(274.408 372.42)" opacity="0.1"/>
      <ellipse id="Ellipse_40" data-name="Ellipse 40" cx="1.108" cy="2.206" rx="1.108" ry="2.206" transform="translate(279.927 345.903)" opacity="0.1"/>
      <ellipse id="Ellipse_41" data-name="Ellipse 41" cx="1.108" cy="2.206" rx="1.108" ry="2.206" transform="translate(275.506 364.215)" opacity="0.1"/>
      <ellipse id="Ellipse_43" data-name="Ellipse 43" cx="1.108" cy="2.206" rx="1.108" ry="2.206" transform="translate(277.721 354.588)" fill="#6c63ff"/>
      <ellipse id="Ellipse_44" data-name="Ellipse 44" cx="1.108" cy="2.206" rx="1.108" ry="2.206" transform="translate(274.408 371.792)" fill="#6c63ff"/>
      <ellipse id="Ellipse_46" data-name="Ellipse 46" cx="1.108" cy="2.206" rx="1.108" ry="2.206" transform="translate(275.506 363.587)" fill="#6c63ff"/>
      <path id="Path_74" data-name="Path 74" d="M524.979,371.584s-17.057-2.941-22.272,0S524.979,371.584,524.979,371.584Z" transform="translate(-161.688 -117.025)" opacity="0.1"/>
      <path id="Path_75" data-name="Path 75" d="M513.5,388.4s-8.823-14.361-11.46-9.8S513.5,388.4,513.5,388.4Z" transform="translate(-161.681 -117.171)" opacity="0.1"/>
      <path id="Path_76" data-name="Path 76" d="M471.256,404.89c-.471.471-19.263,21.939-19.1,23.36S471.256,404.89,471.256,404.89Z" transform="translate(-160.705 -117.707)" opacity="0.1"/>
      <path id="Path_77" data-name="Path 77" d="M643.551,327.27c-.157.48-5.058,10.264-1.814,11.371S643.551,327.27,643.551,327.27Z" transform="translate(-164.419 -116.178)" opacity="0.1"/>
      <path id="Path_78" data-name="Path 78" d="M628.463,313.42s-7.421,2.686-8.685,3.921S628.463,313.42,628.463,313.42Z" transform="translate(-164.006 -115.905)" opacity="0.1"/>
      <path id="Path_79" data-name="Path 79" d="M653.913,305.948c-3.47-.157-15.783-3.48-16.263-2.372S653.913,305.948,653.913,305.948Z" transform="translate(-164.36 -115.706)" opacity="0.1"/>
      <path id="Path_80" data-name="Path 80" d="M522.148,243.424c-.519,12.273-7.548,23.047-7.548,23.047l11.763,28.615v8.323c8,.843,16.43-.892,22.253-6.333-4.617-1.51-7.431-6.1-9.577-10.46a121.118,121.118,0,0,1-6.4-15.842c-1.176-3.637-1.784-8.48,1.451-10.528,1.48-.98,3.441-.98,4.813-2.078,1.774-1.421,1.892-4.117,1.284-6.3-.069-.235-.137-.471-.216-.7-1.431-4.254-4.8-7.617-6.862-11.636a21.038,21.038,0,0,1-1.245-15.6,19.474,19.474,0,0,1,2.265-4.9,21.008,21.008,0,0,1,18.2-9.45c1.833.078,4.078.2,5.009-1.372.725-1.2.206-2.745.441-4.127.7-4.215,5.882-5.147,10.783-6.46a31.6,31.6,0,0,0-25.85-13.724c-17.724,0-32.1,15.077-32.1,33.683A34.311,34.311,0,0,0,522.148,243.424Z" transform="translate(-161.857 -113.353)" opacity="0.1"/>
      <path id="Path_81" data-name="Path 81" d="M555.734,203.759c-.235,1.382.284,2.941-.431,4.137-.98,1.559-3.186,1.441-5.009,1.363A20.586,20.586,0,0,0,531.06,239.2c2.157,4.235,5.784,7.744,7.068,12.322.608,2.2.49,4.9-1.284,6.313-1.363,1.108-3.333,1.137-4.813,2.078-3.235,2.049-2.627,6.862-1.451,10.528a119.812,119.812,0,0,0,6.411,15.842c2.137,4.362,4.9,8.95,9.568,10.46-6.745,6.294-16.959,7.646-25.978,5.735s-17.165-6.607-25.135-11.254c-3.274-1.9-6.735-4.009-8.333-7.44-2.176-4.666-.235-10.087,1.147-15.038a6.019,6.019,0,0,0,.167-3.862c-.618-1.49-2.225-2.264-3.715-2.941-6.294-2.627,5.882-4.9,0-8.391s-11.234-8.274-13.92-14.548c-4.578-10.675-.451-23.409,6.862-32.438s-1.255-15.322,8.1-22.213c5.96-4.4,11.764-9.146,18.39-12.44a50.486,50.486,0,0,1,43.241-.284c6.793,3.186,12.332,8.323,19,11.764,3.284,1.7,10.489,3.843,8.656,8.548C572.262,199.113,556.969,196.319,555.734,203.759Z" transform="translate(-161.034 -113.018)" fill="#252b38"/>
      <path id="Path_84" data-name="Path 84" d="M480.22,441.218s1.294.843,3.784,2.333c4.225-4.235,10.421-11.048,12.43-16.538,3.157-8.636,1.892-33.673,1.892-33.673-1.059,1.049-2.637,9.8-2.637,9.8l-3.754,13.979-.657.549c-5.882,4.833-6.637,13.254-8.323,15.361S480.22,441.218,480.22,441.218Z" transform="translate(-161.258 -117.479)" opacity="0.1"/>
      <path id="Path_96" data-name="Path 96" d="M517.343,301.512c9.028,1.912,19.243.559,25.987-5.735-4.617-1.519-7.431-6.1-9.577-10.46a119.739,119.739,0,0,1-6.4-15.842c-1.186-3.637-1.794-8.48,1.441-10.528,1.49-.98,3.451-.98,4.823-2.078,1.774-1.421,1.892-4.117,1.274-6.313-1.274-4.578-4.9-8.087-7.068-12.322A20.586,20.586,0,0,1,547.055,208.3c1.823.078,4.078.2,5.009-1.363.716-1.206.206-2.755.431-4.137,1.245-7.44,16.528-4.647,19.292-11.764,1.823-4.705-5.372-6.862-8.656-8.548-6.666-3.451-12.2-8.587-19-11.764-1.118-.52-2.264-.98-3.421-1.441a49.391,49.391,0,0,1,7.205,2.666c6.794,3.186,12.332,8.323,19,11.764,3.284,1.706,10.489,3.853,8.656,8.558-2.755,7.117-18.047,4.323-19.282,11.764-.235,1.382.284,2.941-.431,4.137-.98,1.559-3.186,1.441-5.009,1.363a20.586,20.586,0,0,0-19.2,29.958c2.157,4.245,5.784,7.754,7.068,12.332.608,2.2.49,4.9-1.284,6.313-1.363,1.108-3.323,1.137-4.813,2.078-3.235,2.049-2.627,6.862-1.451,10.528a119.807,119.807,0,0,0,6.362,15.842c2.137,4.362,4.951,8.94,9.568,10.46-6.744,6.293-16.959,7.636-25.978,5.735a49.28,49.28,0,0,1-7.107-2.088C515.128,301,516.225,301.277,517.343,301.512Z" transform="translate(-161.924 -113.064)" opacity="0.1"/>
    </g>
  </g>
</svg>
