<svg id="Administrador" xmlns="http://www.w3.org/2000/svg" width="40.482" height="40.483" viewBox="0 0 40.482 40.483">
  <path id="Path_97" data-name="Path 97" d="M302.482,132.241a20.173,20.173,0,0,1-1.63,7.971l-.067.154a20.274,20.274,0,0,1-22.056,11.812l-.364-.067a20.059,20.059,0,0,1-3.661-1.08q-.288-.116-.573-.24c-.129-.056-.259-.114-.387-.174a20.243,20.243,0,1,1,28.738-18.376Z" transform="translate(-262 -112)" fill="#0b736a"/>
  <path id="Path_98" data-name="Path 98" d="M406.481,355.572l-.364-.067a83.229,83.229,0,0,0-1.276-11.934,44.28,44.28,0,0,0-2.183-7.939,24.711,24.711,0,0,0-1.142-2.506,12.994,12.994,0,0,0-3.627-4.485l.213-.291a12.523,12.523,0,0,1,3.247,3.718q.432.717.83,1.529.427.87.814,1.846.247.622.477,1.286a46.686,46.686,0,0,1,1.7,6.586q.155.817.3,1.675A84.937,84.937,0,0,1,406.481,355.572Z" transform="translate(-389.752 -315.394)" opacity="0.2"/>
  <path id="Path_99" data-name="Path 99" d="M405.333,604.585c-.129-.056-.259-.114-.387-.174a29.405,29.405,0,0,0-.776-4.646,15.25,15.25,0,0,0-.707-2.108,6.325,6.325,0,0,0-1.9-2.666l.213-.29a6.618,6.618,0,0,1,1.991,2.727,18.709,18.709,0,0,1,1.192,4.2C405.142,602.689,405.26,603.712,405.333,604.585Z" transform="translate(-393.203 -565.794)" opacity="0.2"/>
  <ellipse id="Ellipse_49" data-name="Ellipse 49" cx="1.802" cy="1.802" rx="1.802" ry="1.802" transform="translate(4.322 9.635)" opacity="0.2"/>
  <ellipse id="Ellipse_50" data-name="Ellipse 50" cx="1.802" cy="1.802" rx="1.802" ry="1.802" transform="translate(4.902 25.146)" opacity="0.2"/>
  <path id="Path_100" data-name="Path 100" d="M482.155,295.454a8,8,0,0,0,.461,4.108A7.294,7.294,0,0,0,484,291.755,8,8,0,0,0,482.155,295.454Z" transform="translate(-468.877 -280.991)" opacity="0.2"/>
  <path id="Path_101" data-name="Path 101" d="M331.541,398.064a8.043,8.043,0,0,0,4.122.269,7.339,7.339,0,0,0-7.446-2.723A8.043,8.043,0,0,0,331.541,398.064Z" transform="translate(-324.252 -378.483)" opacity="0.2"/>
  <path id="Path_102" data-name="Path 102" d="M341.355,639.52a5.61,5.61,0,0,0,2.891.183,5.112,5.112,0,0,0-5.219-1.908A5.61,5.61,0,0,0,341.355,639.52Z" transform="translate(-334.415 -606.205)" opacity="0.2"/>
  <ellipse id="Ellipse_51" data-name="Ellipse 51" cx="7.891" cy="7.891" rx="7.891" ry="7.891" transform="translate(12.308 8.941)" fill="#f2d8c4"/>
  <path id="Path_103" data-name="Path 103" d="M547.833,455.253s.986,4.685.986,5.178,4.685,2.713,4.685,2.713l4.192-.74,1.479-4.439s-2.466-3.7-2.466-5.178Z" transform="translate(-530.716 -432.379)" fill="#f2d8c4"/>
  <path id="Path_104" data-name="Path 104" d="M418.592,521.222l-.067.155a20.274,20.274,0,0,1-22.056,11.812l-.364-.067a20.059,20.059,0,0,1-3.661-1.08q-.288-.116-.573-.24c-.129-.056-.259-.114-.387-.174a20.214,20.214,0,0,1-3.309-1.933l-.935-2.713.526-.4,1.082-.826,1.154-.881.3-.229,4.528-3.457.334-.255,2.353-1.8h0s2.545,4.147,6.244,2.914a5.1,5.1,0,0,0,3.618-4.769Z" transform="translate(-379.74 -493.01)" fill="#414b5e"/>
  <path id="Path_105" data-name="Path 105" d="M455.9,218.418s2.505-5.428,7.307-4.176,7.516,3.132,7.725,5.011a26.811,26.811,0,0,1-.1,4.7s-.522-3.862-3.862-3.027-8.56.209-8.56.209l-.835,7.516s-.939-1.357-1.983-.522S452.56,220.088,455.9,218.418Z" transform="translate(-442.544 -207.943)" fill="#252b38"/>
  <path id="Path_106" data-name="Path 106" d="M376.725,684.331q-.288-.116-.572-.24c-.129-.056-.259-.114-.387-.174a20.291,20.291,0,0,1-5.245-3.515,7.1,7.1,0,0,1,1-1.131h3.7l.555,1.865Z" transform="translate(-364.021 -645.299)" fill="#414b5e"/>
  <path id="Path_107" data-name="Path 107" d="M853.126,576.32l3.173.56a20.241,20.241,0,0,1-3.4,5.3Z" transform="translate(-817.514 -548.514)" fill="#414b5e"/>
</svg>
